{
  "accessors": [
    {
      "bufferView": 0,
      "componentType": 5126,
      "count": 144,
      "max": [
        0.01902749575674534,
        0.01902749016880989,
        0.01902749389410019
      ],
      "min": [
        -0.01902749575674534,
        -0.01902749016880989,
        -0.01902749389410019
      ],
      "type": "VEC3"
    },
    {
      "bufferView": 1,
      "componentType": 5126,
      "count": 144,
      "type": "VEC3"
    },
    {
      "bufferView": 2,
      "componentType": 5126,
      "count": 144,
      "type": "VEC2"
    },
    {
      "bufferView": 3,
      "componentType": 5125,
      "count": 144,
      "type": "SCALAR"
    },
    {
      "bufferView": 4,
      "componentType": 5126,
      "count": 144,
      "max": [
        0.01902749575674534,
        0.01902749016880989,
        0.01902749389410019
      ],
      "min": [
        -0.01902749575674534,
        -0.01902749016880989,
        -0.01902749389410019
      ],
      "type": "VEC3"
    },
    {
      "bufferView": 5,
      "componentType": 5126,
      "count": 144,
      "type": "VEC3"
    },
    {
      "bufferView": 6,
      "componentType": 5126,
      "count": 144,
      "type": "VEC2"
    },
    {
      "bufferView": 7,
      "componentType": 5125,
      "count": 144,
      "type": "SCALAR"
    },
    {
      "bufferView": 8,
      "componentType": 5126,
      "count": 483,
      "max": [
        0.3165365755558014,
        0.02273808792233467,
        0.04543864727020264
      ],
      "min": [
        -0.8278736472129822,
        -0.022620193660259247,
        -0.27191364765167236
      ],
      "type": "VEC3"
    },
    {
      "bufferView": 9,
      "componentType": 5126,
      "count": 483,
      "type": "VEC3"
    },
    {
      "bufferView": 10,
      "componentType": 5126,
      "count": 483,
      "type": "VEC2"
    },
    {
      "bufferView": 11,
      "componentType": 5125,
      "count": 483,
      "type": "SCALAR"
    },
    {
      "bufferView": 12,
      "componentType": 5126,
      "count": 1494,
      "max": [
        0.8092167377471924,
        0.038933850824832916,
        0.05559316650032997
      ],
      "min": [
        -0.31197836995124817,
        -0.038980137556791306,
        -0.09809312969446182
      ],
      "type": "VEC3"
    },
    {
      "bufferView": 13,
      "componentType": 5126,
      "count": 1494,
      "type": "VEC3"
    },
    {
      "bufferView": 14,
      "componentType": 5126,
      "count": 1494,
      "type": "VEC2"
    },
    {
      "bufferView": 15,
      "componentType": 5125,
      "count": 1494,
      "type": "SCALAR"
    }
  ],
  "asset": {
    "generator": "Prisma3D Pro",
    "version": "2.0"
  },
  "bufferViews": [
    {
      "buffer": 0,
      "byteLength": 1728,
      "target": 34962
    },
    {
      "buffer": 1,
      "byteLength": 1728,
      "target": 34962
    },
    {
      "buffer": 2,
      "byteLength": 1152,
      "target": 34962
    },
    {
      "buffer": 3,
      "byteLength": 576,
      "target": 34963
    },
    {
      "buffer": 4,
      "byteLength": 1728,
      "target": 34962
    },
    {
      "buffer": 5,
      "byteLength": 1728,
      "target": 34962
    },
    {
      "buffer": 6,
      "byteLength": 1152,
      "target": 34962
    },
    {
      "buffer": 7,
      "byteLength": 576,
      "target": 34963
    },
    {
      "buffer": 8,
      "byteLength": 5796,
      "target": 34962
    },
    {
      "buffer": 9,
      "byteLength": 5796,
      "target": 34962
    },
    {
      "buffer": 10,
      "byteLength": 3864,
      "target": 34962
    },
    {
      "buffer": 11,
      "byteLength": 1932,
      "target": 34963
    },
    {
      "buffer": 12,
      "byteLength": 17928,
      "target": 34962
    },
    {
      "buffer": 13,
      "byteLength": 17928,
      "target": 34962
    },
    {
      "buffer": 14,
      "byteLength": 11952,
      "target": 34962
    },
    {
      "buffer": 15,
      "byteLength": 5976,
      "target": 34963
    }
  ],
  "buffers": [
    {
      "byteLength": 1728,
      "uri": "data:application/octet-stream;base64,"
    },
    {
      "byteLength": 1728,
      "uri": "data:application/octet-stream;base64,"
    },
    {
      "byteLength": 1152,
      "uri": "data:application/octet-stream;base64,"
    },
    {
      "byteLength": 576,
      "uri": "data:application/octet-stream;base64,"
    },
    {
      "byteLength": 1728,
      "uri": "data:application/octet-stream;base64,"
    },
    {
      "byteLength": 1728,
      "uri": "data:application/octet-stream;base64,"
    },
    {
      "byteLength": 1152,
      "uri": "data:application/octet-stream;base64,"
    },
    {
      "byteLength": 576,
      "uri": "data:application/octet-stream;base64,"
    },
    {
      "byteLength": 5796,
      "uri": "data:application/octet-stream;base64,"
    },
    {
      "byteLength": 5796,
      "uri": "data:application/octet-stream;base64,"
    },
    {
      "byteLength": 3864,
      "uri": "data:application/octet-stream;base64,"
    },
    {
      "byteLength": 1932,
      "uri": "data:application/octet-stream;base64,"
    },
    {
      "byteLength": 17928,
      "uri": "data:application/octet-stream;base64,"
    },
    {
      "byteLength": 17928,
      "uri": "data:application/octet-stream;base64,"
    },
    {
      "byteLength": 11952,
      "uri": "data:application/octet-stream;base64,"
    },
    {
      "byteLength": 5976,
      "uri": "data:application/octet-stream;base64,"
    }
  ],
  "materials": [
    {
      "doubleSided": true,
      "pbrMetallicRoughness": {
        "baseColorFactor": [
          0.10664618760347366,
          0.10664618760347366,
          0.10664618760347366,
          1.0
        ],
        "metallicFactor": 0.0,
        "roughnessFactor": 0.0
      }
    },
    {
      "doubleSided": true,
      "pbrMetallicRoughness": {
        "baseColorFactor": [
          0.10664618760347366,
          0.10664618760347366,
          0.10664618760347366,
          1.0
        ],
        "metallicFactor": 0.0,
        "roughnessFactor": 0.0
      }
    },
    {
      "doubleSided": true,
      "pbrMetallicRoughness": {
        "baseColorFactor": [
          0.5733271241188049,
          0.20983722805976868,
          0.0,
          1.0
        ],
        "metallicFactor": 0.0,
        "roughnessFactor": 0.0
      }
    },
    {
      "doubleSided": true,
      "pbrMetallicRoughness": {
        "baseColorFactor": [
          0.10664618760347366,
          0.10664618760347366,
          0.10664618760347366,
          1.0
        ],
        "metallicFactor": 0.0,
        "roughnessFactor": 0.0
      }
    }
  ],
  "meshes": [
    {
      "primitives": [
        {
          "attributes": {
            "NORMAL": 1,
            "POSITION": 0,
            "TEXCOORD_0": 2
          },
          "indices": 3,
          "material": 0,
          "mode": 4
        }
      ]
    },
    {
      "primitives": [
        {
          "attributes": {
            "NORMAL": 5,
            "POSITION": 4,
            "TEXCOORD_0": 6
          },
          "indices": 7,
          "material": 1,
          "mode": 4
        }
      ]
    },
    {
      "primitives": [
        {
          "attributes": {
            "NORMAL": 9,
            "POSITION": 8,
            "TEXCOORD_0": 10
          },
          "indices": 11,
          "material": 2,
          "mode": 4
        }
      ]
    },
    {
      "primitives": [
        {
          "attributes": {
            "NORMAL": 13,
            "POSITION": 12,
            "TEXCOORD_0": 14
          },
          "indices": 15,
          "material": 3,
          "mode": 4
        }
      ]
    }
  ],
  "nodes": [
    {
      "children": [
        1
      ],
      "name": "low-poly_double_barrel_shotgun",
      "rotation": [
        -0.0006199009949341416,
        0.7073617577552795,
        0.0011019193334504962,
        -0.7068506479263306
      ],
      "scale": [
        1.0,
        1.0,
        1.0
      ],
      "translation": [
        -0.0007757073035463691,
        0.08073877543210983,
        0.32817262411117554
      ]
    },
    {
      "children": [
        2
      ],
      "name": "Sketchfab_Scene",
      "rotation": [
        0.0,
        -0.0,
        -0.0,
        1.0
      ],
      "scale": [
        1.0,
        1.0,
        1.0
      ],
      "translation": [
        5.960464477539063e-08,
        -7.450580596923828e-09,
        -5.820766091346741e-11
      ]
    },
    {
      "children": [
        3
      ],
      "name": "Sketchfab_model",
      "rotation": [
        0.7071068286895752,
        -0.0,
        -0.0,
        -0.7071068286895752
      ],
      "scale": [
        1.0,
        1.0,
        1.0
      ],
      "translation": [
        -0.0,
        0.0,
        0.0
      ]
    },
    {
      "children": [
        4
      ],
      "name": "1ba4194f03a247249387df368ee45e94.fbx",
      "rotation": [
        0.7071068286895752,
        -0.0,
        -0.0,
        0.7071068286895752
      ],
      "scale": [
        1.0,
        1.0,
        1.0
      ],
      "translation": [
        -0.0,
        0.0,
        7.450580596923828e-09
      ]
    },
    {
      "children": [
        9,
        7,
        5
      ],
      "name": "RootNode",
      "rotation": [
        0.0,
        -0.0,
        -0.0,
        1.0
      ],
      "scale": [
        1.0,
        1.0,
        1.0
      ],
      "translation": [
        -0.0,
        0.0,
        5.820766091346741e-11
      ]
    },
    {
      "children": [
        6
      ],
      "name": "Cube.002",
      "rotation": [
        0.7069846987724304,
        -0.0,
        -0.0,
        -0.7072288393974304
      ],
      "scale": [
        1.0,
        1.0,
        1.0
      ],
      "translation": [
        -0.13143858313560486,
        0.021158600226044655,
        -0.019632237032055855
      ]
    },
    {
      "mesh": 0,
      "name": "Cube.002_Material.001_0",
      "rotation": [
        0.0,
        -0.0,
        -0.0,
        1.0
      ],
      "scale": [
        1.0,
        1.0,
        1.0
      ],
      "translation": [
        -4.470348358154297e-08,
        1.862645149230957e-09,
        7.450580596923828e-09
      ]
    },
    {
      "children": [
        8
      ],
      "name": "Cube.001",
      "rotation": [
        0.7069846987724304,
        -0.0,
        -0.0,
        -0.7072288393974304
      ],
      "scale": [
        1.0,
        1.0,
        1.0
      ],
      "translation": [
        -0.13143858313560486,
        0.021158600226044655,
        0.019515015184879303
      ]
    },
    {
      "mesh": 1,
      "name": "Cube.001_Material_0",
      "rotation": [
        0.0,
        -0.0,
        -0.0,
        1.0
      ],
      "scale": [
        1.0,
        1.0,
        1.0
      ],
      "translation": [
        -4.470348358154297e-08,
        -3.725290298461914e-09,
        -7.450580596923828e-09
      ]
    },
    {
      "children": [
        11,
        10
      ],
      "name": "Cube",
      "rotation": [
        0.7069846987724304,
        -0.0,
        -0.0,
        -0.7072288393974304
      ],
      "scale": [
        1.0,
        1.0,
        1.0
      ],
      "translation": [
        0.010367827489972115,
        -0.014989644289016724,
        4.1700903797778355e-13
      ]
    },
    {
      "mesh": 2,
      "name": "Cube_gunwood_0",
      "rotation": [
        0.0,
        -0.0,
        -0.0,
        1.0
      ],
      "scale": [
        1.0,
        1.0,
        1.0
      ],
      "translation": [
        -8.940696716308594e-08,
        0.0,
        0.0
      ]
    },
    {
      "mesh": 3,
      "name": "Cube_body_0",
      "rotation": [
        0.0,
        -0.0,
        -0.0,
        1.0
      ],
      "scale": [
        1.0,
        1.0,
        1.0
      ],
      "translation": [
        -8.940696716308594e-08,
        0.0,
        0.0
      ]
    }
  ],
  "scenes": [
    {
      "nodes": [
        0
      ]
    }
  ]
}
