{
  "accessors": [
    {
      "bufferView": 0,
      "componentType": 5126,
      "count": 60,
      "max": [
        -0.0013002305058762431,
        0.16220983862876892,
        0.43650221824645996
      ],
      "min": [
        -0.0032265889458358288,
        0.1586208939552307,
        0.4098834991455078
      ],
      "type": "VEC3"
    },
    {
      "bufferView": 1,
      "componentType": 5126,
      "count": 60,
      "type": "VEC3"
    },
    {
      "bufferView": 2,
      "componentType": 5126,
      "count": 60,
      "type": "VEC2"
    },
    {
      "bufferView": 3,
      "componentType": 5125,
      "count": 60,
      "type": "SCALAR"
    },
    {
      "bufferView": 4,
      "componentType": 5126,
      "count": 60,
      "type": "VEC4"
    },
    {
      "bufferView": 5,
      "componentType": 5123,
      "count": 60,
      "type": "VEC4"
    },
    {
      "bufferView": 6,
      "componentType": 5126,
      "count": 25,
      "type": "MAT4"
    },
    {
      "bufferView": 7,
      "componentType": 5126,
      "count": 936,
      "max": [
        0.019245246425271034,
        0.14014199376106262,
        0.19795992970466614
      ],
      "min": [
        -0.020906487479805946,
        0.08169625699520111,
        0.11394071578979492
      ],
      "type": "VEC3"
    },
    {
      "bufferView": 8,
      "componentType": 5126,
      "count": 936,
      "type": "VEC3"
    },
    {
      "bufferView": 9,
      "componentType": 5126,
      "count": 936,
      "type": "VEC2"
    },
    {
      "bufferView": 10,
      "componentType": 5125,
      "count": 936,
      "type": "SCALAR"
    },
    {
      "bufferView": 11,
      "componentType": 5126,
      "count": 936,
      "type": "VEC4"
    },
    {
      "bufferView": 12,
      "componentType": 5123,
      "count": 936,
      "type": "VEC4"
    },
    {
      "bufferView": 13,
      "componentType": 5126,
      "count": 25,
      "type": "MAT4"
    },
    {
      "bufferView": 14,
      "componentType": 5126,
      "count": 1512,
      "max": [
        0.020293641835451126,
        0.14149440824985504,
        0.11414768546819687
      ],
      "min": [
        -0.021284373477101326,
        0.08034384995698929,
        0.08879510313272476
      ],
      "type": "VEC3"
    },
    {
      "bufferView": 15,
      "componentType": 5126,
      "count": 1512,
      "type": "VEC3"
    },
    {
      "bufferView": 16,
      "componentType": 5126,
      "count": 1512,
      "type": "VEC2"
    },
    {
      "bufferView": 17,
      "componentType": 5125,
      "count": 1512,
      "type": "SCALAR"
    },
    {
      "bufferView": 18,
      "componentType": 5126,
      "count": 1512,
      "type": "VEC4"
    },
    {
      "bufferView": 19,
      "componentType": 5123,
      "count": 1512,
      "type": "VEC4"
    },
    {
      "bufferView": 20,
      "componentType": 5126,
      "count": 25,
      "type": "MAT4"
    },
    {
      "bufferView": 21,
      "componentType": 5126,
      "count": 288,
      "max": [
        0.015700750052928925,
        0.13473035395145416,
        0.09067021310329437
      ],
      "min": [
        -0.016687940806150436,
        0.08710789680480957,
        0.08884099870920181
      ],
      "type": "VEC3"
    },
    {
      "bufferView": 22,
      "componentType": 5126,
      "count": 288,
      "type": "VEC3"
    },
    {
      "bufferView": 23,
      "componentType": 5126,
      "count": 288,
      "type": "VEC2"
    },
    {
      "bufferView": 24,
      "componentType": 5125,
      "count": 288,
      "type": "SCALAR"
    },
    {
      "bufferView": 25,
      "componentType": 5126,
      "count": 288,
      "type": "VEC4"
    },
    {
      "bufferView": 26,
      "componentType": 5123,
      "count": 288,
      "type": "VEC4"
    },
    {
      "bufferView": 27,
      "componentType": 5126,
      "count": 25,
      "type": "MAT4"
    },
    {
      "bufferView": 28,
      "componentType": 5126,
      "count": 1140,
      "max": [
        0.02608085423707962,
        0.14481982588768005,
        0.2845110297203064
      ],
      "min": [
        -0.027661636471748352,
        0.020491860806941986,
        0.051901571452617645
      ],
      "type": "VEC3"
    },
    {
      "bufferView": 29,
      "componentType": 5126,
      "count": 1140,
      "type": "VEC3"
    },
    {
      "bufferView": 30,
      "componentType": 5126,
      "count": 1140,
      "type": "VEC2"
    },
    {
      "bufferView": 31,
      "componentType": 5125,
      "count": 1140,
      "type": "SCALAR"
    },
    {
      "bufferView": 32,
      "componentType": 5126,
      "count": 1140,
      "type": "VEC4"
    },
    {
      "bufferView": 33,
      "componentType": 5123,
      "count": 1140,
      "type": "VEC4"
    },
    {
      "bufferView": 34,
      "componentType": 5126,
      "count": 25,
      "type": "MAT4"
    },
    {
      "bufferView": 35,
      "componentType": 5126,
      "count": 192,
      "max": [
        0.0053910971619188786,
        0.16277199983596802,
        0.44178974628448486
      ],
      "min": [
        -0.006179771386086941,
        0.11532703042030334,
        0.0611044242978096
      ],
      "type": "VEC3"
    },
    {
      "bufferView": 36,
      "componentType": 5126,
      "count": 192,
      "type": "VEC3"
    },
    {
      "bufferView": 37,
      "componentType": 5126,
      "count": 192,
      "type": "VEC2"
    },
    {
      "bufferView": 38,
      "componentType": 5125,
      "count": 192,
      "type": "SCALAR"
    },
    {
      "bufferView": 39,
      "componentType": 5126,
      "count": 192,
      "type": "VEC4"
    },
    {
      "bufferView": 40,
      "componentType": 5123,
      "count": 192,
      "type": "VEC4"
    },
    {
      "bufferView": 41,
      "componentType": 5126,
      "count": 25,
      "type": "MAT4"
    },
    {
      "bufferView": 42,
      "componentType": 5126,
      "count": 1080,
      "max": [
        0.016147907823324203,
        0.14200162887573242,
        0.14670222997665405
      ],
      "min": [
        -0.01568763516843319,
        -0.046550821512937546,
        -0.047509774565696716
      ],
      "type": "VEC3"
    },
    {
      "bufferView": 43,
      "componentType": 5126,
      "count": 1080,
      "type": "VEC3"
    },
    {
      "bufferView": 44,
      "componentType": 5126,
      "count": 1080,
      "type": "VEC2"
    },
    {
      "bufferView": 45,
      "componentType": 5125,
      "count": 1080,
      "type": "SCALAR"
    },
    {
      "bufferView": 46,
      "componentType": 5126,
      "count": 1080,
      "type": "VEC4"
    },
    {
      "bufferView": 47,
      "componentType": 5123,
      "count": 1080,
      "type": "VEC4"
    },
    {
      "bufferView": 48,
      "componentType": 5126,
      "count": 25,
      "type": "MAT4"
    },
    {
      "bufferView": 49,
      "componentType": 5126,
      "count": 324,
      "max": [
        0.00821416825056076,
        0.08316613733768463,
        -0.0016078464686870575
      ],
      "min": [
        -0.007877208292484283,
        -0.03640427812933922,
        -0.06539454311132431
      ],
      "type": "VEC3"
    },
    {
      "bufferView": 50,
      "componentType": 5126,
      "count": 324,
      "type": "VEC3"
    },
    {
      "bufferView": 51,
      "componentType": 5126,
      "count": 324,
      "type": "VEC2"
    },
    {
      "bufferView": 52,
      "componentType": 5125,
      "count": 324,
      "type": "SCALAR"
    },
    {
      "bufferView": 53,
      "componentType": 5126,
      "count": 324,
      "type": "VEC4"
    },
    {
      "bufferView": 54,
      "componentType": 5123,
      "count": 324,
      "type": "VEC4"
    },
    {
      "bufferView": 55,
      "componentType": 5126,
      "count": 25,
      "type": "MAT4"
    },
    {
      "bufferView": 56,
      "componentType": 5126,
      "count": 846,
      "max": [
        0.015569083392620087,
        0.09826871007680893,
        0.07997404783964157
      ],
      "min": [
        -0.015655921772122383,
        -0.06274442374706268,
        -0.0635433942079544
      ],
      "type": "VEC3"
    },
    {
      "bufferView": 57,
      "componentType": 5126,
      "count": 846,
      "type": "VEC3"
    },
    {
      "bufferView": 58,
      "componentType": 5126,
      "count": 846,
      "type": "VEC2"
    },
    {
      "bufferView": 59,
      "componentType": 5125,
      "count": 846,
      "type": "SCALAR"
    },
    {
      "bufferView": 60,
      "componentType": 5126,
      "count": 846,
      "type": "VEC4"
    },
    {
      "bufferView": 61,
      "componentType": 5123,
      "count": 846,
      "type": "VEC4"
    },
    {
      "bufferView": 62,
      "componentType": 5126,
      "count": 25,
      "type": "MAT4"
    },
    {
      "bufferView": 63,
      "componentType": 5126,
      "count": 3048,
      "max": [
        0.02366730011999607,
        0.16235274076461792,
        0.44458475708961487
      ],
      "min": [
        -0.024668434634804726,
        0.009502491913735867,
        0.00781993381679058
      ],
      "type": "VEC3"
    },
    {
      "bufferView": 64,
      "componentType": 5126,
      "count": 3048,
      "type": "VEC3"
    },
    {
      "bufferView": 65,
      "componentType": 5126,
      "count": 3048,
      "type": "VEC2"
    },
    {
      "bufferView": 66,
      "componentType": 5125,
      "count": 3048,
      "type": "SCALAR"
    },
    {
      "bufferView": 67,
      "componentType": 5126,
      "count": 3048,
      "type": "VEC4"
    },
    {
      "bufferView": 68,
      "componentType": 5123,
      "count": 3048,
      "type": "VEC4"
    },
    {
      "bufferView": 69,
      "componentType": 5126,
      "count": 25,
      "type": "MAT4"
    }
  ],
  "asset": {
    "generator": "Prisma3D Pro",
    "version": "2.0"
  },
  "bufferViews": [
    {
      "buffer": 0,
      "byteLength": 720,
      "target": 34962
    },
    {
      "buffer": 1,
      "byteLength": 720,
      "target": 34962
    },
    {
      "buffer": 2,
      "byteLength": 480,
      "target": 34962
    },
    {
      "buffer": 3,
      "byteLength": 240,
      "target": 34963
    },
    {
      "buffer": 4,
      "byteLength": 960,
      "target": 34962
    },
    {
      "buffer": 5,
      "byteLength": 480,
      "target": 34962
    },
    {
      "buffer": 6,
      "byteLength": 1600
    },
    {
      "buffer": 7,
      "byteLength": 11232,
      "target": 34962
    },
    {
      "buffer": 8,
      "byteLength": 11232,
      "target": 34962
    },
    {
      "buffer": 9,
      "byteLength": 7488,
      "target": 34962
    },
    {
      "buffer": 10,
      "byteLength": 3744,
      "target": 34963
    },
    {
      "buffer": 11,
      "byteLength": 14976,
      "target": 34962
    },
    {
      "buffer": 12,
      "byteLength": 7488,
      "target": 34962
    },
    {
      "buffer": 13,
      "byteLength": 1600
    },
    {
      "buffer": 14,
      "byteLength": 18144,
      "target": 34962
    },
    {
      "buffer": 15,
      "byteLength": 18144,
      "target": 34962
    },
    {
      "buffer": 16,
      "byteLength": 12096,
      "target": 34962
    },
    {
      "buffer": 17,
      "byteLength": 6048,
      "target": 34963
    },
    {
      "buffer": 18,
      "byteLength": 24192,
      "target": 34962
    },
    {
      "buffer": 19,
      "byteLength": 12096,
      "target": 34962
    },
    {
      "buffer": 20,
      "byteLength": 1600
    },
    {
      "buffer": 21,
      "byteLength": 3456,
      "target": 34962
    },
    {
      "buffer": 22,
      "byteLength": 3456,
      "target": 34962
    },
    {
      "buffer": 23,
      "byteLength": 2304,
      "target": 34962
    },
    {
      "buffer": 24,
      "byteLength": 1152,
      "target": 34963
    },
    {
      "buffer": 25,
      "byteLength": 4608,
      "target": 34962
    },
    {
      "buffer": 26,
      "byteLength": 2304,
      "target": 34962
    },
    {
      "buffer": 27,
      "byteLength": 1600
    },
    {
      "buffer": 28,
      "byteLength": 13680,
      "target": 34962
    },
    {
      "buffer": 29,
      "byteLength": 13680,
      "target": 34962
    },
    {
      "buffer": 30,
      "byteLength": 9120,
      "target": 34962
    },
    {
      "buffer": 31,
      "byteLength": 4560,
      "target": 34963
    },
    {
      "buffer": 32,
      "byteLength": 18240,
      "target": 34962
    },
    {
      "buffer": 33,
      "byteLength": 9120,
      "target": 34962
    },
    {
      "buffer": 34,
      "byteLength": 1600
    },
    {
      "buffer": 35,
      "byteLength": 2304,
      "target": 34962
    },
    {
      "buffer": 36,
      "byteLength": 2304,
      "target": 34962
    },
    {
      "buffer": 37,
      "byteLength": 1536,
      "target": 34962
    },
    {
      "buffer": 38,
      "byteLength": 768,
      "target": 34963
    },
    {
      "buffer": 39,
      "byteLength": 3072,
      "target": 34962
    },
    {
      "buffer": 40,
      "byteLength": 1536,
      "target": 34962
    },
    {
      "buffer": 41,
      "byteLength": 1600
    },
    {
      "buffer": 42,
      "byteLength": 12960,
      "target": 34962
    },
    {
      "buffer": 43,
      "byteLength": 12960,
      "target": 34962
    },
    {
      "buffer": 44,
      "byteLength": 8640,
      "target": 34962
    },
    {
      "buffer": 45,
      "byteLength": 4320,
      "target": 34963
    },
    {
      "buffer": 46,
      "byteLength": 17280,
      "target": 34962
    },
    {
      "buffer": 47,
      "byteLength": 8640,
      "target": 34962
    },
    {
      "buffer": 48,
      "byteLength": 1600
    },
    {
      "buffer": 49,
      "byteLength": 3888,
      "target": 34962
    },
    {
      "buffer": 50,
      "byteLength": 3888,
      "target": 34962
    },
    {
      "buffer": 51,
      "byteLength": 2592,
      "target": 34962
    },
    {
      "buffer": 52,
      "byteLength": 1296,
      "target": 34963
    },
    {
      "buffer": 53,
      "byteLength": 5184,
      "target": 34962
    },
    {
      "buffer": 54,
      "byteLength": 2592,
      "target": 34962
    },
    {
      "buffer": 55,
      "byteLength": 1600
    },
    {
      "buffer": 56,
      "byteLength": 10152,
      "target": 34962
    },
    {
      "buffer": 57,
      "byteLength": 10152,
      "target": 34962
    },
    {
      "buffer": 58,
      "byteLength": 6768,
      "target": 34962
    },
    {
      "buffer": 59,
      "byteLength": 3384,
      "target": 34963
    },
    {
      "buffer": 60,
      "byteLength": 13536,
      "target": 34962
    },
    {
      "buffer": 61,
      "byteLength": 6768,
      "target": 34962
    },
    {
      "buffer": 62,
      "byteLength": 1600
    },
    {
      "buffer": 63,
      "byteLength": 36576,
      "target": 34962
    },
    {
      "buffer": 64,
      "byteLength": 36576,
      "target": 34962
    },
    {
      "buffer": 65,
      "byteLength": 24384,
      "target": 34962
    },
    {
      "buffer": 66,
      "byteLength": 12192,
      "target": 34963
    },
    {
      "buffer": 67,
      "byteLength": 48768,
      "target": 34962
    },
    {
      "buffer": 68,
      "byteLength": 24384,
      "target": 34962
    },
    {
      "buffer": 69,
      "byteLength": 1600
    }
  ],
  "buffers": [
    {
      "byteLength": 720,
      "uri": "data:application/octet-stream;base64,"
    },
    {
      "byteLength": 720,
      "uri": "data:application/octet-stream;base64,"
    },
    {
      "byteLength": 480,
      "uri": "data:application/octet-stream;base64,"
    },
    {
      "byteLength": 240,
      "uri": "data:application/octet-stream;base64,"
    },
    {
      "byteLength": 960,
      "uri": "data:application/octet-stream;base64,"
    },
    {
      "byteLength": 480,
      "uri": "data:application/octet-stream;base64,"
    },
    {
      "byteLength": 1600,
      "uri": "data:application/octet-stream;base64,"
    },
    {
      "byteLength": 11232,
      "uri": "data:application/octet-stream;base64,"
    },
    {
      "byteLength": 11232,
      "uri": "data:application/octet-stream;base64,"
    },
    {
      "byteLength": 7488,
      "uri": "data:application/octet-stream;base64,"
    },
    {
      "byteLength": 3744,
      "uri": "data:application/octet-stream;base64,"
    },
    {
      "byteLength": 14976,
      "uri": "data:application/octet-stream;base64,"
    },
    {
      "byteLength": 7488,
      "uri": "data:application/octet-stream;base64,"
    },
    {
      "byteLength": 1600,
      "uri": "data:application/octet-stream;base64,"
    },
    {
      "byteLength": 18144,
      "uri": "data:application/octet-stream;base64,"
    },
    {
      "byteLength": 18144,
      "uri": "data:application/octet-stream;base64,"
    },
    {
      "byteLength": 12096,
      "uri": "data:application/octet-stream;base64,"
    },
    {
      "byteLength": 6048,
      "uri": "data:application/octet-stream;base64,"
    },
    {
      "byteLength": 24192,
      "uri": "data:application/octet-stream;base64,"
    },
    {
      "byteLength": 12096,
      "uri": "data:application/octet-stream;base64,"
    },
    {
      "byteLength": 1600,
      "uri": "data:application/octet-stream;base64,"
    },
    {
      "byteLength": 3456,
      "uri": "data:application/octet-stream;base64,"
    },
    {
      "byteLength": 3456,
      "uri": "data:application/octet-stream;base64,"
    },
    {
      "byteLength": 2304,
      "uri": "data:application/octet-stream;base64,"
    },
    {
      "byteLength": 1152,
      "uri": "data:application/octet-stream;base64,"
    },
    {
      "byteLength": 4608,
      "uri": "data:application/octet-stream;base64,"
    },
    {
      "byteLength": 2304,
      "uri": "data:application/octet-stream;base64,"
    },
    {
      "byteLength": 1600,
      "uri": "data:application/octet-stream;base64,"
    },
    {
      "byteLength": 13680,
      "uri": "data:application/octet-stream;base64,"
    },
    {
      "byteLength": 13680,
      "uri": "data:application/octet-stream;base64,"
    },
    {
      "byteLength": 9120,
      "uri": "data:application/octet-stream;base64,"
    },
    {
      "byteLength": 4560,
      "uri": "data:application/octet-stream;base64,"
    },
    {
      "byteLength": 18240,
      "uri": "data:application/octet-stream;base64,"
    },
    {
      "byteLength": 9120,
      "uri": "data:application/octet-stream;base64,"
    },
    {
      "byteLength": 1600,
      "uri": "data:application/octet-stream;base64,"
    },
    {
      "byteLength": 2304,
      "uri": "data:application/octet-stream;base64,"
    },
    {
      "byteLength": 2304,
      "uri": "data:application/octet-stream;base64,"
    },
    {
      "byteLength": 1536,
      "uri": "data:application/octet-stream;base64,"
    },
    {
      "byteLength": 768,
      "uri": "data:application/octet-stream;base64,"
    },
    {
      "byteLength": 3072,
      "uri": "data:application/octet-stream;base64,"
    },
    {
      "byteLength": 1536,
      "uri": "data:application/octet-stream;base64,"
    },
    {
      "byteLength": 1600,
      "uri": "data:application/octet-stream;base64,"
    },
    {
      "byteLength": 12960,
      "uri": "data:application/octet-stream;base64,"
    },
    {
      "byteLength": 12960,
      "uri": "data:application/octet-stream;base64,"
    },
    {
      "byteLength": 8640,
      "uri": "data:application/octet-stream;base64,"
    },
    {
      "byteLength": 4320,
      "uri": "data:application/octet-stream;base64,"
    },
    {
      "byteLength": 17280,
      "uri": "data:application/octet-stream;base64,"
    },
    {
      "byteLength": 8640,
      "uri": "data:application/octet-stream;base64,"
    },
    {
      "byteLength": 1600,
      "uri": "data:application/octet-stream;base64,"
    },
    {
      "byteLength": 3888,
      "uri": "data:application/octet-stream;base64,"
    },
    {
      "byteLength": 3888,
      "uri": "data:application/octet-stream;base64,"
    },
    {
      "byteLength": 2592,
      "uri": "data:application/octet-stream;base64,"
    },
    {
      "byteLength": 1296,
      "uri": "data:application/octet-stream;base64,"
    },
    {
      "byteLength": 5184,
      "uri": "data:application/octet-stream;base64,"
    },
    {
      "byteLength": 2592,
      "uri": "data:application/octet-stream;base64,"
    },
    {
      "byteLength": 1600,
      "uri": "data:application/octet-stream;base64,"
    },
    {
      "byteLength": 10152,
      "uri": "data:application/octet-stream;base64,"
    },
    {
      "byteLength": 10152,
      "uri": "data:application/octet-stream;base64,"
    },
    {
      "byteLength": 6768,
      "uri": "data:application/octet-stream;base64,"
    },
    {
      "byteLength": 3384,
      "uri": "data:application/octet-stream;base64,"
    },
    {
      "byteLength": 13536,
      "uri": "data:application/octet-stream;base64,"
    },
    {
      "byteLength": 6768,
      "uri": "data:application/octet-stream;base64,"
    },
    {
      "byteLength": 1600,
      "uri": "data:application/octet-stream;base64,"
    },
    {
      "byteLength": 36576,
      "uri": "data:application/octet-stream;base64,"
    },
    {
      "byteLength": 36576,
      "uri": "data:application/octet-stream;base64,"
    },
    {
      "byteLength": 24384,
      "uri": "data:application/octet-stream;base64,"
    },
    {
      "byteLength": 12192,
      "uri": "data:application/octet-stream;base64,"
    },
    {
      "byteLength": 48768,
      "uri": "data:application/octet-stream;base64,"
    },
    {
      "byteLength": 24384,
      "uri": "data:application/octet-stream;base64,"
    },
    {
      "byteLength": 1600,
      "uri": "data:application/octet-stream;base64,"
    }
  ],
  "materials": [
    {
      "doubleSided": true,
      "pbrMetallicRoughness": {
        "baseColorFactor": [
          1.0,
          0.3053096830844879,
          0.3053096830844879,
          1.0
        ],
        "metallicFactor": 0.0,
        "roughnessFactor": 0.0
      }
    },
    {
      "doubleSided": true,
      "pbrMetallicRoughness": {
        "baseColorFactor": [
          0.4666595458984375,
          0.21411707997322083,
          0.21411707997322083,
          1.0
        ],
        "metallicFactor": 0.0,
        "roughnessFactor": 0.0
      }
    },
    {
      "doubleSided": true,
      "pbrMetallicRoughness": {
        "baseColorFactor": [
          0.5133265852928162,
          0.43513938784599304,
          0.2808225750923157,
          1.0
        ],
        "metallicFactor": 0.0,
        "roughnessFactor": 0.0
      }
    },
    {
      "doubleSided": true,
      "pbrMetallicRoughness": {
        "baseColorFactor": [
          0.43999338150024414,
          0.42705485224723816,
          0.42705485224723816,
          1.0
        ],
        "metallicFactor": 0.0,
        "roughnessFactor": 0.0
      }
    },
    {
      "doubleSided": true,
      "pbrMetallicRoughness": {
        "baseColorFactor": [
          0.4656389355659485,
          0.4656389355659485,
          0.4656389355659485,
          1.0
        ],
        "metallicFactor": 0.0,
        "roughnessFactor": 0.0
      }
    },
    {
      "doubleSided": true,
      "pbrMetallicRoughness": {
        "baseColorFactor": [
          0.21332645416259766,
          0.21332645416259766,
          0.21332645416259766,
          1.0
        ],
        "metallicFactor": 0.0,
        "roughnessFactor": 0.0
      }
    },
    {
      "doubleSided": true,
      "pbrMetallicRoughness": {
        "baseColorFactor": [
          0.44666028022766113,
          0.4370172917842865,
          0.4308984875679016,
          1.0
        ],
        "metallicFactor": 0.0,
        "roughnessFactor": 0.0
      }
    },
    {
      "doubleSided": true,
      "pbrMetallicRoughness": {
        "baseColorFactor": [
          0.49999332427978516,
          0.2617640793323517,
          0.2617640793323517,
          1.0
        ],
        "metallicFactor": 0.0,
        "roughnessFactor": 0.0
      }
    },
    {
      "doubleSided": true,
      "pbrMetallicRoughness": {
        "baseColorFactor": [
          0.14031967520713806,
          0.14031967520713806,
          0.14031967520713806,
          1.0
        ],
        "metallicFactor": 0.0,
        "roughnessFactor": 0.0
      }
    },
    {
      "doubleSided": true,
      "pbrMetallicRoughness": {
        "baseColorFactor": [
          0.4599933624267578,
          0.4599933624267578,
          0.4599933624267578,
          1.0
        ],
        "metallicFactor": 0.0,
        "roughnessFactor": 0.0
      }
    }
  ],
  "meshes": [
    {
      "primitives": [
        {
          "attributes": {
            "JOINTS_0": 5,
            "NORMAL": 1,
            "POSITION": 0,
            "TEXCOORD_0": 2,
            "WEIGHTS_0": 4
          },
          "indices": 3,
          "material": 0,
          "mode": 4
        }
      ]
    },
    {
      "primitives": [
        {
          "attributes": {
            "JOINTS_0": 12,
            "NORMAL": 8,
            "POSITION": 7,
            "TEXCOORD_0": 9,
            "WEIGHTS_0": 11
          },
          "indices": 10,
          "material": 1,
          "mode": 4
        }
      ]
    },
    {
      "primitives": [
        {
          "attributes": {
            "JOINTS_0": 19,
            "NORMAL": 15,
            "POSITION": 14,
            "TEXCOORD_0": 16,
            "WEIGHTS_0": 18
          },
          "indices": 17,
          "material": 2,
          "mode": 4
        }
      ]
    },
    {
      "primitives": [
        {
          "attributes": {
            "JOINTS_0": 26,
            "NORMAL": 22,
            "POSITION": 21,
            "TEXCOORD_0": 23,
            "WEIGHTS_0": 25
          },
          "indices": 24,
          "material": 3,
          "mode": 4
        }
      ]
    },
    {
      "primitives": [
        {
          "attributes": {
            "JOINTS_0": 33,
            "NORMAL": 29,
            "POSITION": 28,
            "TEXCOORD_0": 30,
            "WEIGHTS_0": 32
          },
          "indices": 31,
          "material": 4,
          "mode": 4
        }
      ]
    },
    {
      "primitives": [
        {
          "attributes": {
            "JOINTS_0": 40,
            "NORMAL": 36,
            "POSITION": 35,
            "TEXCOORD_0": 37,
            "WEIGHTS_0": 39
          },
          "indices": 38,
          "material": 5,
          "mode": 4
        }
      ]
    },
    {
      "primitives": [
        {
          "attributes": {
            "JOINTS_0": 47,
            "NORMAL": 43,
            "POSITION": 42,
            "TEXCOORD_0": 44,
            "WEIGHTS_0": 46
          },
          "indices": 45,
          "material": 6,
          "mode": 4
        }
      ]
    },
    {
      "primitives": [
        {
          "attributes": {
            "JOINTS_0": 54,
            "NORMAL": 50,
            "POSITION": 49,
            "TEXCOORD_0": 51,
            "WEIGHTS_0": 53
          },
          "indices": 52,
          "material": 7,
          "mode": 4
        }
      ]
    },
    {
      "primitives": [
        {
          "attributes": {
            "JOINTS_0": 61,
            "NORMAL": 57,
            "POSITION": 56,
            "TEXCOORD_0": 58,
            "WEIGHTS_0": 60
          },
          "indices": 59,
          "material": 8,
          "mode": 4
        }
      ]
    },
    {
      "primitives": [
        {
          "attributes": {
            "JOINTS_0": 68,
            "NORMAL": 64,
            "POSITION": 63,
            "TEXCOORD_0": 65,
            "WEIGHTS_0": 67
          },
          "indices": 66,
          "material": 9,
          "mode": 4
        }
      ]
    }
  ],
  "nodes": [
    {
      "children": [
        1
      ],
      "name": "low-poly_taurus_raging_judge",
      "rotation": [
        0.0,
        -0.7089340686798096,
        -0.0,
        0.705274760723114
      ],
      "scale": [
        1.0,
        1.0,
        1.0
      ],
      "translation": [
        -0.0010147088905796409,
        0.054033249616622925,
        0.19607771933078766
      ]
    },
    {
      "children": [
        2
      ],
      "name": "Sketchfab_Scene",
      "rotation": [
        0.0,
        -0.0,
        -0.0,
        1.0
      ],
      "scale": [
        1.0,
        1.0,
        1.0
      ],
      "translation": [
        -0.0,
        0.0,
        -7.771561172376096e-14
      ]
    },
    {
      "children": [
        3
      ],
      "name": "Sketchfab_model",
      "rotation": [
        0.7071068286895752,
        -0.0,
        -0.0,
        -0.7071068286895752
      ],
      "scale": [
        1.0,
        1.0,
        1.0
      ],
      "translation": [
        -0.0,
        0.0,
        -7.771561172376096e-14
      ]
    },
    {
      "children": [
        4
      ],
      "name": "40b7fdfdcb5745c2aa237cfd6107a8b1.fbx",
      "rotation": [
        0.7071068286895752,
        -0.0,
        -0.0,
        0.7071068286895752
      ],
      "scale": [
        1.0,
        1.0,
        1.0
      ],
      "translation": [
        -0.0,
        -7.79158404462521e-11,
        0.0
      ]
    },
    {
      "children": [
        10,
        8,
        5
      ],
      "name": "RootNode",
      "rotation": [
        0.0,
        -0.0,
        -0.0,
        1.0
      ],
      "scale": [
        1.0,
        1.0,
        1.0
      ],
      "translation": [
        -0.0,
        0.0,
        -1.1649303743865858e-10
      ]
    },
    {
      "children": [
        6
      ],
      "name": "Light",
      "rotation": [
        0.5062699317932129,
        0.5511213541030884,
        -0.2830359637737274,
        0.5998722314834595
      ],
      "scale": [
        1.0,
        1.0,
        1.0
      ],
      "translation": [
        1.4900858402252197,
        -0.276311457157135,
        0.2487773597240448
      ]
    },
    {
      "children": [
        7
      ],
      "name": "Object_4",
      "rotation": [
        0.7071068286895752,
        -0.0,
        -0.0,
        0.7071068286895752
      ],
      "scale": [
        1.0,
        1.0,
        1.0
      ],
      "translation": [
        -4.470348358154297e-08,
        -1.1920928955078125e-07,
        -5.960464477539063e-08
      ]
    },
    {
      "name": "Object_5",
      "rotation": [
        0.0,
        -0.0,
        -0.0,
        1.0
      ],
      "scale": [
        1.0,
        1.0,
        1.0
      ],
      "translation": [
        7.450580596923828e-09,
        5.960464477539063e-08,
        0.0
      ]
    },
    {
      "children": [
        9
      ],
      "name": "Camera",
      "rotation": [
        0.005357387475669384,
        0.8685367703437805,
        -0.005201547406613827,
        0.49556848406791687
      ],
      "scale": [
        1.0,
        1.0,
        1.0
      ],
      "translation": [
        1.8526533842086792,
        -0.022482512518763542,
        3.1017799377441406
      ]
    },
    {
      "name": "Object_7",
      "rotation": [
        0.0,
        -0.0,
        -0.0,
        1.0
      ],
      "scale": [
        1.0,
        1.0,
        1.0
      ],
      "translation": [
        4.76837158203125e-07,
        -7.450580596923828e-09,
        4.470348358154297e-08
      ]
    },
    {
      "children": [
        11
      ],
      "name": "Armature",
      "rotation": [
        0.7069846987724304,
        -0.0,
        -0.0,
        -0.7072288393974304
      ],
      "scale": [
        1.0,
        1.0,
        1.0
      ],
      "translation": [
        -0.2223387509584427,
        -0.05114356800913811,
        -9.966184322252047e-09
      ]
    },
    {
      "children": [
        23,
        22,
        21,
        20,
        19,
        18,
        17,
        16,
        15,
        14,
        13,
        12
      ],
      "name": "Object_9",
      "rotation": [
        0.0,
        -0.0,
        -0.0,
        1.0
      ],
      "scale": [
        1.0,
        1.0,
        1.0
      ],
      "translation": [
        2.7939677238464355e-08,
        3.842615114990622e-11,
        3.725290298461914e-09
      ]
    },
    {
      "name": "Object_21",
      "rotation": [
        0.0,
        -0.0,
        -0.0,
        1.0
      ],
      "scale": [
        1.0,
        1.0,
        1.0
      ],
      "translation": [
        -0.0,
        0.0,
        0.0
      ]
    },
    {
      "name": "Object_20",
      "rotation": [
        0.0,
        -0.0,
        -0.0,
        1.0
      ],
      "scale": [
        1.0,
        1.0,
        1.0
      ],
      "translation": [
        -0.0,
        0.0,
        0.0
      ]
    },
    {
      "name": "Object_19",
      "rotation": [
        0.0,
        -0.0,
        -0.0,
        1.0
      ],
      "scale": [
        1.0,
        1.0,
        1.0
      ],
      "translation": [
        -0.0,
        0.0,
        0.0
      ]
    },
    {
      "name": "Object_18",
      "rotation": [
        0.0,
        -0.0,
        -0.0,
        1.0
      ],
      "scale": [
        1.0,
        1.0,
        1.0
      ],
      "translation": [
        -0.0,
        0.0,
        0.0
      ]
    },
    {
      "name": "Object_17",
      "rotation": [
        0.0,
        -0.0,
        -0.0,
        1.0
      ],
      "scale": [
        1.0,
        1.0,
        1.0
      ],
      "translation": [
        -0.0,
        0.0,
        0.0
      ]
    },
    {
      "name": "Object_16",
      "rotation": [
        0.0,
        -0.0,
        -0.0,
        1.0
      ],
      "scale": [
        1.0,
        1.0,
        1.0
      ],
      "translation": [
        -0.0,
        0.0,
        0.0
      ]
    },
    {
      "name": "Object_15",
      "rotation": [
        0.0,
        -0.0,
        -0.0,
        1.0
      ],
      "scale": [
        1.0,
        1.0,
        1.0
      ],
      "translation": [
        -0.0,
        0.0,
        0.0
      ]
    },
    {
      "name": "Object_14",
      "rotation": [
        0.0,
        -0.0,
        -0.0,
        1.0
      ],
      "scale": [
        1.0,
        1.0,
        1.0
      ],
      "translation": [
        -0.0,
        0.0,
        0.0
      ]
    },
    {
      "name": "Object_13",
      "rotation": [
        0.0,
        -0.0,
        -0.0,
        1.0
      ],
      "scale": [
        1.0,
        1.0,
        1.0
      ],
      "translation": [
        -0.0,
        0.0,
        0.0
      ]
    },
    {
      "name": "Object_12",
      "rotation": [
        0.0,
        -0.0,
        -0.0,
        1.0
      ],
      "scale": [
        1.0,
        1.0,
        1.0
      ],
      "translation": [
        -0.0,
        0.0,
        0.0
      ]
    },
    {
      "name": "Object_11",
      "rotation": [
        0.7071068286895752,
        2.1456787457907467e-09,
        2.1456787457907467e-09,
        -0.7071068286895752
      ],
      "scale": [
        1.0,
        1.0,
        1.0
      ],
      "translation": [
        0.9775252938270569,
        1.3051637411117554,
        -0.00011596416879910976
      ]
    },
    {
      "children": [
        32,
        30,
        28,
        26,
        24
      ],
      "name": "_rootJoint",
      "rotation": [
        0.0,
        -0.0,
        -0.0,
        1.0
      ],
      "scale": [
        1.0,
        1.0,
        1.0
      ],
      "translation": [
        -1.862645149230957e-09,
        -6.480149750132114e-12,
        0.0
      ]
    },
    {
      "children": [
        25
      ],
      "name": "trigger_02",
      "rotation": [
        -0.10024962574243546,
        -0.6999642848968506,
        0.6999642848968506,
        -0.10024962574243546
      ],
      "scale": [
        1.0,
        1.0,
        1.0
      ],
      "translation": [
        0.1225794330239296,
        -7.669102160434704e-06,
        0.06366725265979767
      ]
    },
    {
      "name": "trigger_end_015",
      "rotation": [
        -1.3234889800848443e-23,
        -8.470329472543003e-22,
        -1.6590126271265635e-17,
        1.0
      ],
      "scale": [
        1.0,
        1.0,
        1.0
      ],
      "translation": [
        -0.003211966948583722,
        0.0351678691804409,
        -3.9512283365183976e-06
      ]
    },
    {
      "children": [
        27
      ],
      "name": "hammer_01",
      "rotation": [
        0.6998419761657715,
        -0.10110010206699371,
        0.10110010206699371,
        0.6998419761657715
      ],
      "scale": [
        1.0,
        1.0,
        1.0
      ],
      "translation": [
        0.082760289311409,
        -9.15262626222102e-06,
        0.07600589841604233
      ]
    },
    {
      "name": "hammer_end_014",
      "rotation": [
        -1.3234889800848443e-23,
        -7.133281806676195e-40,
        5.3897546849293484e-17,
        1.0
      ],
      "scale": [
        1.0,
        1.0,
        1.0
      ],
      "translation": [
        -0.0031665253918617964,
        0.03442399948835373,
        3.863332949549658e-06
      ]
    },
    {
      "children": [
        29
      ],
      "name": "cylinderrelease_03",
      "rotation": [
        -0.5,
        -0.5,
        0.5,
        -0.5
      ],
      "scale": [
        1.0,
        1.0,
        1.0
      ],
      "translation": [
        0.07909359782934189,
        0.014620543457567692,
        0.09278573095798492
      ]
    },
    {
      "name": "cylinderrelease_end_016",
      "rotation": [
        1.3234889800848443e-23,
        -2.6469779601696886e-23,
        6.449013630828673e-24,
        1.0
      ],
      "scale": [
        1.0,
        1.0,
        1.0
      ],
      "translation": [
        -6.311853200746762e-15,
        0.023672394454479218,
        1.8755539343828787e-09
      ]
    },
    {
      "children": [
        31
      ],
      "name": "body_00",
      "rotation": [
        -0.684592068195343,
        -0.1770133525133133,
        0.1770133525133133,
        -0.684592068195343
      ],
      "scale": [
        1.0,
        1.0,
        1.0
      ],
      "translation": [
        -0.012434912845492363,
        -1.4049501260160469e-06,
        0.011682169511914253
      ]
    },
    {
      "name": "body_end_013",
      "rotation": [
        -3.308722450212111e-24,
        9.926167350636332e-24,
        2.5858608934305956e-17,
        1.0
      ],
      "scale": [
        1.0,
        1.0,
        1.0
      ],
      "translation": [
        0.008066141977906227,
        0.0590885691344738,
        5.7460638345219195e-06
      ]
    },
    {
      "children": [
        33
      ],
      "name": "arm_04",
      "rotation": [
        0.7069846987724304,
        8.430827591610068e-08,
        -8.427917208564395e-08,
        0.7072288393974304
      ],
      "scale": [
        1.0,
        1.0,
        1.0
      ],
      "translation": [
        0.24372445046901703,
        0.007762486115098,
        0.06252255290746689
      ]
    },
    {
      "children": [
        46,
        44,
        42,
        40,
        38,
        36,
        34
      ],
      "name": "cylinder_05",
      "rotation": [
        -3.957900673867698e-09,
        -8.10182996247022e-08,
        -0.7071066498756409,
        0.70710688829422
      ],
      "scale": [
        1.0,
        1.0,
        1.0
      ],
      "translation": [
        -0.10937292873859406,
        0.03429599478840828,
        0.007770000025629997
      ]
    },
    {
      "children": [
        35
      ],
      "name": "cylinderclear_012",
      "rotation": [
        -2.4600563808263587e-09,
        2.6075690584548283e-07,
        -9.687100543942506e-08,
        1.0
      ],
      "scale": [
        1.0,
        1.0,
        1.0
      ],
      "translation": [
        -1.1708365832419076e-08,
        0.10123292356729507,
        1.1843694025515106e-08
      ]
    },
    {
      "name": "cylinderclear_end_023",
      "rotation": [
        -1.3234889800848443e-23,
        -5.293955920339377e-23,
        -4.513546555312541e-26,
        1.0
      ],
      "scale": [
        1.0,
        1.0,
        1.0
      ],
      "translation": [
        -9.31383414837228e-10,
        0.04837144538760185,
        -1.6097871646802986e-10
      ]
    },
    {
      "children": [
        37
      ],
      "name": "bullet6_09",
      "rotation": [
        2.6054024067448953e-15,
        2.2338294769497224e-08,
        -9.687098412314299e-08,
        1.0
      ],
      "scale": [
        1.0,
        1.0,
        1.0
      ],
      "translation": [
        -0.007631145417690277,
        5.483305898223989e-08,
        -0.01791420578956604
      ]
    },
    {
      "name": "bullet6_end_020",
      "rotation": [
        0.0,
        6.617444900424222e-24,
        -7.362438828427703e-27,
        1.0
      ],
      "scale": [
        1.0,
        1.0,
        1.0
      ],
      "translation": [
        2.853768421573477e-08,
        0.06567912548780441,
        -3.725290298461914e-09
      ]
    },
    {
      "children": [
        39
      ],
      "name": "bullet5_08",
      "rotation": [
        2.605401771470185e-15,
        2.2338300098567743e-08,
        -9.687099122857035e-08,
        1.0
      ],
      "scale": [
        1.0,
        1.0,
        1.0
      ],
      "translation": [
        0.007816122844815254,
        5.052268292615736e-08,
        -0.018022125586867332
      ]
    },
    {
      "name": "bullet5_end_019",
      "rotation": [
        -1.3234889800848443e-23,
        6.617444900424222e-24,
        1.0130552515220211e-26,
        1.0
      ],
      "scale": [
        1.0,
        1.0,
        1.0
      ],
      "translation": [
        1.3636523910065534e-08,
        0.06567912548780441,
        -1.862645149230957e-09
      ]
    },
    {
      "children": [
        41
      ],
      "name": "bullet4_07",
      "rotation": [
        -2.460088133204863e-09,
        2.2338300098567743e-08,
        -9.687099122857035e-08,
        1.0
      ],
      "scale": [
        1.0,
        1.0,
        1.0
      ],
      "translation": [
        0.015739846974611282,
        4.597173486331485e-08,
        -1.9879655699384102e-09
      ]
    },
    {
      "name": "bullet4_end_018",
      "rotation": [
        1.3234889800848443e-23,
        -0.0,
        4.1557981347948123e-26,
        1.0
      ],
      "scale": [
        1.0,
        1.0,
        1.0
      ],
      "translation": [
        6.1859428690524965e-09,
        0.06567911058664322,
        -7.918250499727719e-10
      ]
    },
    {
      "children": [
        43
      ],
      "name": "bullet3_011",
      "rotation": [
        2.605401559711948e-15,
        2.2338300098567743e-08,
        -9.687100543942506e-08,
        1.0
      ],
      "scale": [
        1.0,
        1.0,
        1.0
      ],
      "translation": [
        0.007736087776720524,
        4.587956681234573e-08,
        0.018022121861577034
      ]
    },
    {
      "name": "bullet3_end_022",
      "rotation": [
        0.0,
        -0.0,
        1.0032732992600828e-26,
        1.0
      ],
      "scale": [
        1.0,
        1.0,
        1.0
      ],
      "translation": [
        2.853768421573477e-08,
        0.06567911058664322,
        3.725290298461914e-09
      ]
    },
    {
      "children": [
        45
      ],
      "name": "bullet2_010",
      "rotation": [
        2.605401771470185e-15,
        2.2338300098567743e-08,
        -9.687099122857035e-08,
        1.0
      ],
      "scale": [
        1.0,
        1.0,
        1.0
      ],
      "translation": [
        -0.007871248759329319,
        5.02766610566141e-08,
        0.017806289717555046
      ]
    },
    {
      "name": "bullet2_end_021",
      "rotation": [
        -1.3234889800848443e-23,
        6.617444900424222e-24,
        1.0130552515220211e-26,
        1.0
      ],
      "scale": [
        1.0,
        1.0,
        1.0
      ],
      "translation": [
        2.853768599209161e-08,
        0.06567911058664322,
        -1.862645149230957e-09
      ]
    },
    {
      "children": [
        47
      ],
      "name": "bullet1_06",
      "rotation": [
        -2.4600779191530364e-09,
        -1.2074086203777996e-15,
        1.4781868424066334e-16,
        1.0
      ],
      "scale": [
        1.0,
        1.0,
        1.0
      ],
      "translation": [
        -0.015474827028810978,
        5.471004627111142e-08,
        1.7620427339437583e-09
      ]
    },
    {
      "name": "bullet1_end_017",
      "rotation": [
        0.0,
        -0.0,
        -2.296815857205289e-23,
        1.0
      ],
      "scale": [
        1.0,
        1.0,
        1.0
      ],
      "translation": [
        2.4374431362161886e-08,
        0.06567911058664322,
        -7.918250499727719e-10
      ]
    },
    {
      "mesh": 0,
      "name": "Object_21",
      "rotation": [
        0.0,
        -0.0,
        -0.0,
        1.0
      ],
      "scale": [
        1.0,
        1.0,
        1.0
      ],
      "skin": 0,
      "translation": [
        -0.0,
        0.0,
        0.0
      ]
    },
    {
      "mesh": 1,
      "name": "Object_20",
      "rotation": [
        0.0,
        -0.0,
        -0.0,
        1.0
      ],
      "scale": [
        1.0,
        1.0,
        1.0
      ],
      "skin": 1,
      "translation": [
        -0.0,
        0.0,
        0.0
      ]
    },
    {
      "mesh": 2,
      "name": "Object_19",
      "rotation": [
        0.0,
        -0.0,
        -0.0,
        1.0
      ],
      "scale": [
        1.0,
        1.0,
        1.0
      ],
      "skin": 2,
      "translation": [
        -0.0,
        0.0,
        0.0
      ]
    },
    {
      "mesh": 3,
      "name": "Object_18",
      "rotation": [
        0.0,
        -0.0,
        -0.0,
        1.0
      ],
      "scale": [
        1.0,
        1.0,
        1.0
      ],
      "skin": 3,
      "translation": [
        -0.0,
        0.0,
        0.0
      ]
    },
    {
      "mesh": 4,
      "name": "Object_17",
      "rotation": [
        0.0,
        -0.0,
        -0.0,
        1.0
      ],
      "scale": [
        1.0,
        1.0,
        1.0
      ],
      "skin": 4,
      "translation": [
        -0.0,
        0.0,
        0.0
      ]
    },
    {
      "mesh": 5,
      "name": "Object_16",
      "rotation": [
        0.0,
        -0.0,
        -0.0,
        1.0
      ],
      "scale": [
        1.0,
        1.0,
        1.0
      ],
      "skin": 5,
      "translation": [
        -0.0,
        0.0,
        0.0
      ]
    },
    {
      "mesh": 6,
      "name": "Object_15",
      "rotation": [
        0.0,
        -0.0,
        -0.0,
        1.0
      ],
      "scale": [
        1.0,
        1.0,
        1.0
      ],
      "skin": 6,
      "translation": [
        -0.0,
        0.0,
        0.0
      ]
    },
    {
      "mesh": 7,
      "name": "Object_14",
      "rotation": [
        0.0,
        -0.0,
        -0.0,
        1.0
      ],
      "scale": [
        1.0,
        1.0,
        1.0
      ],
      "skin": 7,
      "translation": [
        -0.0,
        0.0,
        0.0
      ]
    },
    {
      "mesh": 8,
      "name": "Object_13",
      "rotation": [
        0.0,
        -0.0,
        -0.0,
        1.0
      ],
      "scale": [
        1.0,
        1.0,
        1.0
      ],
      "skin": 8,
      "translation": [
        -0.0,
        0.0,
        0.0
      ]
    },
    {
      "mesh": 9,
      "name": "Object_12",
      "rotation": [
        0.0,
        -0.0,
        -0.0,
        1.0
      ],
      "scale": [
        1.0,
        1.0,
        1.0
      ],
      "skin": 9,
      "translation": [
        -0.0,
        0.0,
        0.0
      ]
    }
  ],
  "scenes": [
    {
      "nodes": [
        0,
        48,
        49,
        50,
        51,
        52,
        53,
        54,
        55,
        56,
        57
      ]
    }
  ],
  "skins": [
    {
      "inverseBindMatrices": 6,
      "joints": [
        23,
        30,
        31,
        26,
        27,
        24,
        25,
        28,
        29,
        32,
        33,
        46,
        47,
        40,
        41,
        38,
        39,
        36,
        37,
        44,
        45,
        42,
        43,
        34,
        35
      ]
    },
    {
      "inverseBindMatrices": 13,
      "joints": [
        23,
        30,
        31,
        26,
        27,
        24,
        25,
        28,
        29,
        32,
        33,
        46,
        47,
        40,
        41,
        38,
        39,
        36,
        37,
        44,
        45,
        42,
        43,
        34,
        35
      ]
    },
    {
      "inverseBindMatrices": 20,
      "joints": [
        23,
        30,
        31,
        26,
        27,
        24,
        25,
        28,
        29,
        32,
        33,
        46,
        47,
        40,
        41,
        38,
        39,
        36,
        37,
        44,
        45,
        42,
        43,
        34,
        35
      ]
    },
    {
      "inverseBindMatrices": 27,
      "joints": [
        23,
        30,
        31,
        26,
        27,
        24,
        25,
        28,
        29,
        32,
        33,
        46,
        47,
        40,
        41,
        38,
        39,
        36,
        37,
        44,
        45,
        42,
        43,
        34,
        35
      ]
    },
    {
      "inverseBindMatrices": 34,
      "joints": [
        23,
        30,
        31,
        26,
        27,
        24,
        25,
        28,
        29,
        32,
        33,
        46,
        47,
        40,
        41,
        38,
        39,
        36,
        37,
        44,
        45,
        42,
        43,
        34,
        35
      ]
    },
    {
      "inverseBindMatrices": 41,
      "joints": [
        23,
        30,
        31,
        26,
        27,
        24,
        25,
        28,
        29,
        32,
        33,
        46,
        47,
        40,
        41,
        38,
        39,
        36,
        37,
        44,
        45,
        42,
        43,
        34,
        35
      ]
    },
    {
      "inverseBindMatrices": 48,
      "joints": [
        23,
        30,
        31,
        26,
        27,
        24,
        25,
        28,
        29,
        32,
        33,
        46,
        47,
        40,
        41,
        38,
        39,
        36,
        37,
        44,
        45,
        42,
        43,
        34,
        35
      ]
    },
    {
      "inverseBindMatrices": 55,
      "joints": [
        23,
        30,
        31,
        26,
        27,
        24,
        25,
        28,
        29,
        32,
        33,
        46,
        47,
        40,
        41,
        38,
        39,
        36,
        37,
        44,
        45,
        42,
        43,
        34,
        35
      ]
    },
    {
      "inverseBindMatrices": 62,
      "joints": [
        23,
        30,
        31,
        26,
        27,
        24,
        25,
        28,
        29,
        32,
        33,
        46,
        47,
        40,
        41,
        38,
        39,
        36,
        37,
        44,
        45,
        42,
        43,
        34,
        35
      ]
    },
    {
      "inverseBindMatrices": 69,
      "joints": [
        23,
        30,
        31,
        26,
        27,
        24,
        25,
        28,
        29,
        32,
        33,
        46,
        47,
        40,
        41,
        38,
        39,
        36,
        37,
        44,
        45,
        42,
        43,
        34,
        35
      ]
    }
  ]
}
